<svg width="69" height="70" viewBox="0 0 69 70" fill="none" xmlns="http://www.w3.org/2000/svg">
<ellipse cx="34.5" cy="35" rx="34.5" ry="35" fill="#FF2424"/>
<path d="M23.875 31.375C23.875 28.3582 25.0734 25.4649 27.2067 23.3317C29.3399 21.1984 32.2332 20 35.25 20C38.2668 20 41.1601 21.1984 43.2933 23.3317C45.4266 25.4649 46.625 28.3582 46.625 31.375V33.0569C49.381 33.4517 51.5 35.8226 51.5 38.6875V39.0938C51.5 41.9781 49.0121 44.5066 46.0855 44.3717C44.883 47.8167 41.8248 50.1389 38.5244 50.7271C37.7606 51.0066 36.8571 50.875 36.0625 50.875C35.416 50.875 34.796 50.6182 34.3389 50.1611C33.8818 49.704 33.625 49.084 33.625 48.4375C33.625 47.791 33.8818 47.171 34.3389 46.7139C34.796 46.2568 35.416 46 36.0625 46C37.3511 46 38.7779 45.8131 39.6489 46.9896C41.7549 45.987 43.375 43.8696 43.375 41.125V31.375C43.375 29.2201 42.519 27.1535 40.9952 25.6298C39.4715 24.106 37.4049 23.25 35.25 23.25C33.0951 23.25 31.0285 24.106 29.5048 25.6298C27.981 27.1535 27.125 29.2201 27.125 31.375V41.5312C27.125 42.2855 26.8254 43.0088 26.2921 43.5421C25.7588 44.0754 25.0355 44.375 24.2812 44.375C22.8806 44.375 21.5373 43.8186 20.5468 42.8282C19.5564 41.8377 19 40.4944 19 39.0938V38.6875C18.9996 37.3196 19.4923 35.9974 20.3877 34.9633C21.283 33.9291 22.5211 33.2523 23.875 33.0569V31.375Z" fill="white"/>
</svg>
