<svg width="69" height="70" viewBox="0 0 69 70" fill="none" xmlns="http://www.w3.org/2000/svg">
<ellipse cx="34.5" cy="35" rx="34.5" ry="35" fill="#FF2424"/>
<path d="M40.25 17H24.5C23.5717 17 22.6815 17.3687 22.0251 18.0251C21.3687 18.6815 21 19.5717 21 20.5V48.5C21 49.4283 21.3687 50.3185 22.0251 50.9749C22.6815 51.6313 23.5717 52 24.5 52H45.5C46.4283 52 47.3185 51.6313 47.9749 50.9749C48.6313 50.3185 49 49.4283 49 48.5V25.75L40.25 17Z" stroke="white" stroke-width="2" stroke-linecap="round" stroke-linejoin="round"/>
<path d="M38.5 17V24C38.5 24.9283 38.8687 25.8185 39.5251 26.4749C40.1815 27.1313 41.0717 27.5 42 27.5H49M29.75 39.75L33.25 43.25L40.25 36.25" stroke="white" stroke-width="2" stroke-linecap="round" stroke-linejoin="round"/>
</svg>
