<svg width="34" height="34" viewBox="0 0 34 34" fill="none" xmlns="http://www.w3.org/2000/svg">
<path d="M9.41304 21.9563V22.4563H9.91304H12.7174V32.5667C5.71133 30.8541 0.5 24.5396 0.5 16.9998C0.5 8.15591 7.67788 0.978027 16.5217 0.978027C25.3656 0.978027 32.5435 8.15591 32.5435 16.9998C32.5435 25.1257 26.4996 31.829 18.6739 32.8774V22.4563H23.1304H23.6304V21.9563V16.9998V16.4998H23.1304H18.6739V13.6954C18.6739 13.0629 19.1935 12.5432 19.8261 12.5432H23.1304H23.6304V12.0432V7.08672V6.58672H23.1304H19C15.5352 6.58672 12.7174 9.40449 12.7174 12.8693V16.4998H9.91304H9.41304V16.9998V21.9563Z" fill="#222222" stroke="#222222"/>
</svg>
