<svg width="69" height="70" viewBox="0 0 69 70" fill="none" xmlns="http://www.w3.org/2000/svg">
<ellipse cx="34.5" cy="35" rx="34.5" ry="35" fill="#FF2424"/>
<path d="M49.7326 44.905V44.8634C49.5504 44.2053 49.2389 43.5893 48.8162 43.0505C48.3934 42.5117 47.8676 42.0606 47.2688 41.7232C46.6699 41.3858 46.0099 41.1685 45.3262 41.0838C44.6426 40.9992 43.9488 41.0488 43.2845 41.2298C40.8971 41.9232 37.6206 42.894 35.1491 43.6013C35.3787 42.8943 35.3565 42.1306 35.0861 41.4378C34.456 39.8776 32.6987 39.1772 31.2285 39.1772H24.3813C23.6955 39.1324 23.0514 38.8356 22.575 38.3451C21.8431 37.6754 20.883 37.3039 19.8865 37.3049H14.3486C13.1725 37.3286 12.054 37.8137 11.2388 38.6536C10.4236 39.4936 9.97831 40.6196 10.0008 41.7845V50.5149C9.97829 51.7006 10.4314 52.8469 11.2609 53.7022C12.0904 54.5575 13.2284 55.0522 14.4256 55.0777H21.0837C21.9379 55.0741 22.7716 54.8182 23.4781 54.3426H23.5481C25.4868 55.4179 27.6693 55.9881 29.8912 56C31.2112 56.0034 32.5239 55.8069 33.7839 55.4175L46.148 51.6799H46.239C46.9185 51.4636 47.5481 51.1165 48.0918 50.6586C48.6354 50.2006 49.0824 49.6408 49.407 49.0113C49.7316 48.3818 49.9275 47.695 49.9834 46.9903C50.0392 46.2856 49.954 45.577 49.7326 44.905ZM14.4256 52.3039C13.9711 52.2789 13.5451 52.0766 13.2407 51.7413C12.9364 51.4061 12.7784 50.9652 12.8013 50.5149V41.8123C12.7784 41.3829 12.9285 40.9621 13.2186 40.6423C13.5087 40.3224 13.9151 40.1297 14.3486 40.1064H19.8795C20.1764 40.1036 20.4627 40.2156 20.6776 40.4185C20.8873 40.6036 21.107 40.7772 21.3358 40.9385V52.2762C21.2519 52.2837 21.1676 52.2837 21.0837 52.2762L14.4256 52.3039ZM45.2869 49.0656L32.9508 52.7685C31.961 53.0772 30.9289 53.2316 29.8912 53.2262C28.1376 53.2256 26.4128 52.7842 24.8784 51.9434L24.1362 51.5481V41.9648H31.2285C31.4654 41.9429 31.7042 41.9789 31.9239 42.0695C32.1436 42.1602 32.3375 42.3028 32.4887 42.4849C32.5867 42.7345 32.4047 43.5597 30.9834 44.898L30.1783 45.6678L30.7314 46.6178C31.2985 47.5886 31.8516 47.4291 34.19 46.7703C35.2962 46.4583 36.7734 46.0353 38.2437 45.6054C41.1702 44.7594 44.0967 43.8926 44.0967 43.8926C44.7218 43.7487 45.3789 43.8513 45.929 44.1788C46.4791 44.5062 46.879 45.0327 47.0442 45.647C47.1709 45.9849 47.2256 46.3452 47.2046 46.7051C47.1837 47.065 47.0876 47.4167 46.9224 47.738C46.7573 48.0592 46.5267 48.3431 46.2452 48.5716C45.9637 48.8001 45.6374 48.9683 45.2869 49.0656ZM42.9695 23.138C43.982 23.138 44.9718 22.8406 45.8135 22.2833C46.6553 21.726 47.3113 20.9339 47.6984 20.0072C48.0856 19.0806 48.1865 18.061 47.9885 17.0775C47.7905 16.0941 47.3023 15.1909 46.5859 14.4822C45.8694 13.7736 44.9569 13.2914 43.9636 13.0966C42.9704 12.9018 41.9411 13.0031 41.0061 13.3879C40.071 13.7726 39.2722 14.4234 38.7107 15.2579C38.1492 16.0924 37.8502 17.0731 37.8516 18.076C37.8553 19.4186 38.3959 20.7051 39.3551 21.6538C40.3143 22.6025 41.6139 23.1362 42.9695 23.138ZM42.9695 15.7807C43.4278 15.7807 43.8759 15.9153 44.257 16.1675C44.6381 16.4197 44.9351 16.7782 45.1105 17.1976C45.2859 17.617 45.3318 18.0785 45.2423 18.5237C45.1529 18.969 44.9322 19.378 44.6081 19.699C44.284 20.02 43.8711 20.2386 43.4216 20.3271C42.972 20.4157 42.5061 20.3702 42.0826 20.1965C41.6592 20.0228 41.2973 19.7286 41.0426 19.3511C40.788 18.9737 40.6521 18.5299 40.6521 18.076C40.6521 17.7745 40.712 17.4761 40.8285 17.1976C40.9449 16.9191 41.1156 16.6661 41.3308 16.4529C41.546 16.2398 41.8015 16.0707 42.0826 15.9554C42.3638 15.84 42.6651 15.7807 42.9695 15.7807ZM41.3102 38.2341H43.6206C44.9662 38.2323 46.2562 37.702 47.2077 36.7596C48.1592 35.8172 48.6946 34.5395 48.6965 33.2067V29.2611C48.6946 27.9283 48.1592 26.6506 47.2077 25.7082C46.2562 24.7658 44.9662 24.2355 43.6206 24.2337H41.5202C40.1746 24.2355 38.8846 24.7658 37.9331 25.7082C36.9816 26.6506 36.4462 27.9283 36.4444 29.2611V33.1859C36.4325 34.4891 36.9342 35.7455 37.8428 36.6882C38.7514 37.6309 39.9953 38.1854 41.3102 38.2341ZM39.2518 29.2611C39.2518 28.6634 39.4916 28.0901 39.9183 27.6675C40.345 27.2448 40.9238 27.0074 41.5272 27.0074H43.6276C44.2305 27.0092 44.8082 27.2473 45.2345 27.6695C45.6608 28.0918 45.9011 28.6639 45.903 29.2611V33.2067C45.9011 33.8039 45.6608 34.376 45.2345 34.7983C44.8082 35.2205 44.2305 35.4586 43.6276 35.4604H41.3172C40.7403 35.4143 40.2038 35.1489 39.8201 34.7197C39.4364 34.2905 39.2353 33.7309 39.2588 33.1582L39.2518 29.2611Z" fill="white"/>
</svg>
